<?xml version="1.0" encoding="UTF-8"?>
<svg xmlns="http://www.w3.org/2000/svg" xmlns:xlink="http://www.w3.org/1999/xlink" width="109px" height="53px" viewBox="0 0 109 53" version="1.1">
<g id="surface1">
<path style=" stroke:none;fill-rule:nonzero;fill:rgb(11.764706%,11.764706%,11.764706%);fill-opacity:1;" d="M 0 0 C 35.96875 0 71.941406 0 109 0 C 109 17.488281 109 34.980469 109 53 C 73.03125 53 37.058594 53 0 53 C 0 35.511719 0 18.019531 0 0 Z M 0 0 "/>
<path style=" stroke:none;fill-rule:nonzero;fill:rgb(5.882353%,80.000001%,96.862745%);fill-opacity:1;" d="M 38.222656 20.164062 C 44.050781 20.164062 44.050781 20.164062 45.324219 21.289062 C 45.859375 21.945312 45.980469 22.527344 45.972656 23.367188 C 45.976562 23.625 45.976562 23.625 45.976562 23.890625 C 45.890625 24.683594 45.582031 25.238281 44.976562 25.75 C 44.886719 25.75 44.800781 25.75 44.707031 25.75 C 44.707031 25.839844 44.707031 25.929688 44.707031 26.023438 C 44.882812 26.035156 44.882812 26.035156 45.0625 26.046875 C 45.738281 26.210938 46.128906 26.53125 46.5 27.105469 C 46.964844 28.027344 47.019531 28.933594 46.78125 29.933594 C 46.433594 30.941406 45.902344 31.46875 44.984375 31.957031 C 44.328125 32.234375 43.6875 32.207031 42.984375 32.195312 C 42.863281 32.195312 42.742188 32.191406 42.617188 32.191406 C 42.167969 32.191406 41.722656 32.183594 41.273438 32.179688 C 40.265625 32.171875 39.261719 32.164062 38.222656 32.152344 C 38.222656 28.199219 38.222656 24.242188 38.222656 20.164062 Z M 38.222656 20.164062 "/>
<path style=" stroke:none;fill-rule:nonzero;fill:rgb(90.588236%,6.666667%,82.745099%);fill-opacity:1;" d="M 92.65625 19.484375 C 93.460938 19.484375 94.261719 19.484375 95.089844 19.484375 C 95.132812 21.101562 95.175781 22.71875 95.222656 24.386719 C 95.667969 24.117188 96.113281 23.847656 96.574219 23.570312 C 97.007812 23.5 97.3125 23.464844 97.738281 23.484375 C 97.839844 23.488281 97.9375 23.492188 98.039062 23.496094 C 98.925781 23.539062 99.535156 23.6875 100.152344 24.324219 C 100.914062 25.28125 100.933594 26.402344 100.921875 27.578125 C 100.921875 27.707031 100.921875 27.839844 100.921875 27.976562 C 100.917969 28.390625 100.917969 28.808594 100.914062 29.226562 C 100.910156 29.507812 100.910156 29.792969 100.910156 30.078125 C 100.90625 30.769531 100.902344 31.460938 100.894531 32.152344 C 100.09375 32.152344 99.292969 32.152344 98.464844 32.152344 C 98.460938 31.898438 98.460938 31.898438 98.457031 31.636719 C 98.445312 31.003906 98.433594 30.371094 98.421875 29.738281 C 98.417969 29.464844 98.410156 29.191406 98.40625 28.917969 C 98.402344 28.523438 98.394531 28.128906 98.386719 27.738281 C 98.382812 27.613281 98.382812 27.492188 98.378906 27.367188 C 98.378906 27.25 98.375 27.136719 98.371094 27.019531 C 98.371094 26.917969 98.367188 26.816406 98.367188 26.714844 C 98.324219 26.382812 98.234375 26.167969 98.058594 25.886719 C 97.457031 25.480469 96.875 25.527344 96.167969 25.613281 C 95.667969 25.902344 95.445312 26.175781 95.222656 26.703125 C 95.179688 26.980469 95.179688 26.980469 95.179688 27.265625 C 95.175781 27.375 95.175781 27.484375 95.171875 27.597656 C 95.167969 27.773438 95.167969 27.773438 95.167969 27.949219 C 95.164062 28.070312 95.160156 28.191406 95.160156 28.3125 C 95.152344 28.695312 95.144531 29.082031 95.136719 29.464844 C 95.132812 29.722656 95.128906 29.984375 95.121094 30.242188 C 95.109375 30.878906 95.097656 31.515625 95.089844 32.152344 C 94.285156 32.152344 93.484375 32.152344 92.65625 32.152344 C 92.65625 27.972656 92.65625 23.792969 92.65625 19.484375 Z M 92.65625 19.484375 "/>
<path style=" stroke:none;fill-rule:nonzero;fill:rgb(62.7451%,30.588236%,87.058824%);fill-opacity:1;" d="M 81.175781 24.117188 C 82.058594 24.785156 82.492188 25.628906 82.761719 26.695312 C 82.8125 27.289062 82.796875 27.882812 82.796875 28.476562 C 80.746094 28.476562 78.695312 28.476562 76.582031 28.476562 C 76.894531 29.632812 76.894531 29.632812 77.664062 30.246094 C 78.101562 30.46875 78.542969 30.445312 79.015625 30.382812 C 79.617188 30.167969 80.007812 29.96875 80.367188 29.429688 C 80.765625 29.421875 81.132812 29.433594 81.53125 29.472656 C 81.640625 29.480469 81.746094 29.488281 81.859375 29.496094 C 82.125 29.519531 82.394531 29.542969 82.660156 29.566406 C 82.375 30.597656 81.738281 31.292969 80.914062 31.953125 C 80.214844 32.351562 79.453125 32.339844 78.667969 32.351562 C 78.558594 32.351562 78.453125 32.351562 78.339844 32.355469 C 77.148438 32.335938 76.128906 31.945312 75.257812 31.097656 C 74.203125 29.960938 74.039062 28.828125 74.089844 27.316406 C 74.175781 26.175781 74.679688 25.285156 75.503906 24.515625 C 76.996094 23.335938 79.53125 23.042969 81.175781 24.117188 Z M 81.175781 24.117188 "/>
<path style=" stroke:none;fill-rule:nonzero;fill:rgb(32.156864%,57.254905%,92.941177%);fill-opacity:1;" d="M 58.398438 23.511719 C 58.582031 23.507812 58.582031 23.507812 58.765625 23.503906 C 59.71875 23.503906 60.582031 23.6875 61.304688 24.351562 C 62.128906 25.234375 62.171875 26.175781 62.1875 27.335938 C 62.191406 27.476562 62.191406 27.613281 62.195312 27.753906 C 62.203125 28.195312 62.210938 28.632812 62.214844 29.070312 C 62.222656 29.371094 62.226562 29.667969 62.230469 29.964844 C 62.246094 30.695312 62.257812 31.425781 62.265625 32.152344 C 61.910156 32.15625 61.550781 32.160156 61.195312 32.164062 C 61.09375 32.164062 60.992188 32.164062 60.886719 32.167969 C 60.625 32.167969 60.367188 32.160156 60.105469 32.152344 C 59.96875 32.019531 59.96875 32.019531 59.960938 31.667969 C 59.964844 31.558594 59.96875 31.449219 59.96875 31.335938 C 59.882812 31.335938 59.792969 31.335938 59.699219 31.335938 C 59.699219 31.425781 59.699219 31.515625 59.699219 31.609375 C 58.546875 32.410156 57.402344 32.457031 56.054688 32.289062 C 55.386719 32.074219 55.078125 31.773438 54.703125 31.183594 C 54.429688 30.355469 54.414062 29.46875 54.796875 28.6875 C 55.902344 27.453125 57.433594 27.1875 58.984375 26.816406 C 59.410156 26.726562 59.410156 26.726562 59.699219 26.566406 C 59.664062 26.101562 59.664062 26.101562 59.566406 25.613281 C 58.964844 25.210938 58.378906 25.257812 57.675781 25.34375 C 57.164062 25.636719 56.972656 25.910156 56.730469 26.433594 C 55.300781 26.300781 55.300781 26.300781 54.703125 26.160156 C 54.78125 25.324219 55.085938 24.800781 55.691406 24.226562 C 56.59375 23.609375 57.328125 23.503906 58.398438 23.511719 Z M 58.398438 23.511719 "/>
<path style=" stroke:none;fill-rule:nonzero;fill:rgb(47.450981%,44.313726%,90.588236%);fill-opacity:1;" d="M 71.148438 23.792969 C 71.835938 24.234375 72.273438 24.835938 72.53125 25.613281 C 72.5625 25.945312 72.5625 25.945312 72.5625 26.292969 C 72.5625 26.421875 72.5625 26.554688 72.5625 26.6875 C 72.5625 26.828125 72.558594 26.96875 72.558594 27.113281 C 72.558594 27.253906 72.558594 27.398438 72.558594 27.546875 C 72.554688 28.007812 72.550781 28.46875 72.546875 28.925781 C 72.546875 29.238281 72.546875 29.550781 72.542969 29.863281 C 72.542969 30.625 72.539062 31.390625 72.53125 32.152344 C 71.730469 32.152344 70.925781 32.152344 70.101562 32.152344 C 70.101562 31.980469 70.097656 31.804688 70.097656 31.628906 C 70.097656 30.980469 70.089844 30.335938 70.078125 29.6875 C 70.078125 29.410156 70.074219 29.128906 70.074219 28.851562 C 70.074219 28.449219 70.066406 28.046875 70.0625 27.644531 C 70.0625 27.519531 70.0625 27.394531 70.0625 27.265625 C 70.046875 26.644531 70.03125 26.378906 69.640625 25.875 C 69.175781 25.53125 68.929688 25.53125 68.375 25.566406 C 67.929688 25.636719 67.628906 25.757812 67.265625 26.023438 C 66.828125 26.710938 66.796875 27.292969 66.789062 28.082031 C 66.789062 28.199219 66.785156 28.316406 66.78125 28.4375 C 66.773438 28.808594 66.769531 29.179688 66.765625 29.546875 C 66.761719 29.800781 66.757812 30.054688 66.75 30.304688 C 66.738281 30.921875 66.730469 31.539062 66.722656 32.152344 C 65.964844 32.152344 65.207031 32.152344 64.425781 32.152344 C 64.425781 29.367188 64.425781 26.578125 64.425781 23.707031 C 65.183594 23.707031 65.941406 23.707031 66.722656 23.707031 C 66.769531 23.933594 66.8125 24.15625 66.859375 24.386719 C 66.957031 24.304688 67.054688 24.21875 67.152344 24.132812 C 68.167969 23.359375 69.976562 23.246094 71.148438 23.792969 Z M 71.148438 23.792969 "/>
<path style=" stroke:none;fill-rule:nonzero;fill:rgb(76.862746%,18.039216%,84.705883%);fill-opacity:1;" d="M 87.21875 23.503906 C 87.339844 23.503906 87.460938 23.503906 87.585938 23.503906 C 88.703125 23.535156 89.472656 23.789062 90.292969 24.574219 C 90.539062 25.011719 90.652344 25.398438 90.765625 25.886719 C 90.554688 25.9375 90.34375 25.984375 90.132812 26.03125 C 89.957031 26.070312 89.957031 26.070312 89.777344 26.113281 C 89.386719 26.164062 89.117188 26.140625 88.738281 26.023438 C 88.554688 25.800781 88.371094 25.574219 88.199219 25.34375 C 87.722656 25.179688 87.347656 25.179688 86.847656 25.207031 C 86.414062 25.429688 86.414062 25.429688 86.375 25.808594 C 86.40625 26.183594 86.40625 26.183594 86.726562 26.367188 C 87.160156 26.589844 87.570312 26.710938 88.039062 26.832031 C 89.273438 27.179688 90.167969 27.507812 90.902344 28.613281 C 91.125 29.292969 91.183594 30.019531 90.910156 30.695312 C 90.402344 31.550781 89.882812 31.984375 88.925781 32.257812 C 87.425781 32.589844 86.191406 32.496094 84.832031 31.738281 C 84.214844 31.292969 84.050781 30.683594 83.878906 29.972656 C 84.140625 29.882812 84.402344 29.792969 84.664062 29.703125 C 84.808594 29.652344 84.953125 29.601562 85.105469 29.546875 C 85.5 29.429688 85.5 29.429688 85.902344 29.429688 C 85.960938 29.558594 86.015625 29.6875 86.070312 29.820312 C 86.320312 30.269531 86.390625 30.347656 86.847656 30.519531 C 87.152344 30.558594 87.152344 30.558594 87.464844 30.542969 C 87.566406 30.542969 87.671875 30.542969 87.777344 30.542969 C 88.089844 30.527344 88.089844 30.527344 88.46875 30.382812 C 88.515625 30.113281 88.558594 29.84375 88.605469 29.566406 C 88.101562 29.101562 87.519531 28.964844 86.882812 28.773438 C 85.851562 28.445312 84.984375 28.121094 84.328125 27.210938 C 83.992188 26.523438 84.023438 25.8125 84.148438 25.070312 C 84.816406 23.816406 85.894531 23.492188 87.21875 23.503906 Z M 87.21875 23.503906 "/>
<path style=" stroke:none;fill-rule:nonzero;fill:rgb(19.215687%,68.627453%,94.901961%);fill-opacity:1;" d="M 53.757812 23.570312 C 53.757812 24.289062 53.757812 25.007812 53.757812 25.75 C 53.574219 25.761719 53.394531 25.773438 53.207031 25.785156 C 52.542969 25.859375 52.140625 26.039062 51.597656 26.433594 C 51.222656 26.945312 51.277344 27.554688 51.269531 28.164062 C 51.265625 28.277344 51.265625 28.390625 51.261719 28.507812 C 51.253906 28.871094 51.246094 29.234375 51.242188 29.601562 C 51.234375 29.847656 51.230469 30.09375 51.226562 30.339844 C 51.210938 30.945312 51.203125 31.550781 51.191406 32.152344 C 50.386719 32.152344 49.585938 32.152344 48.757812 32.152344 C 48.757812 29.367188 48.757812 26.578125 48.757812 23.707031 C 49.515625 23.707031 50.273438 23.707031 51.054688 23.707031 C 51.101562 24.023438 51.144531 24.335938 51.191406 24.660156 C 51.292969 24.578125 51.292969 24.578125 51.394531 24.492188 C 52.152344 23.886719 52.765625 23.570312 53.757812 23.570312 Z M 53.757812 23.570312 "/>
<path style=" stroke:none;fill-rule:nonzero;fill:rgb(0%,75.294119%,81.960785%);fill-opacity:1;" d="M 25.921875 26.792969 C 26.550781 27.105469 26.914062 27.539062 27.148438 28.203125 C 27.234375 28.917969 27.132812 29.371094 26.742188 29.972656 C 26.238281 30.488281 25.804688 30.765625 25.082031 30.835938 C 24.335938 30.769531 23.953125 30.449219 23.460938 29.898438 C 23.074219 29.332031 23.039062 28.878906 23.097656 28.203125 C 23.324219 27.535156 23.695312 27.105469 24.324219 26.792969 C 24.875 26.601562 25.367188 26.601562 25.921875 26.792969 Z M 25.921875 26.792969 "/>
<path style=" stroke:none;fill-rule:nonzero;fill:rgb(0%,84.705883%,70.980394%);fill-opacity:1;" d="M 20.285156 26.859375 C 20.734375 27.160156 21.101562 27.4375 21.339844 27.929688 C 21.476562 28.734375 21.402344 29.429688 20.9375 30.109375 C 20.441406 30.570312 20.089844 30.769531 19.417969 30.835938 C 18.691406 30.773438 18.210938 30.519531 17.710938 29.964844 C 17.34375 29.328125 17.308594 28.648438 17.421875 27.929688 C 18.054688 26.796875 19.074219 26.425781 20.285156 26.859375 Z M 20.285156 26.859375 "/>
<path style=" stroke:none;fill-rule:nonzero;fill:rgb(0%,75.294119%,81.960785%);fill-opacity:1;" d="M 25.664062 20.980469 C 26.300781 21.210938 26.636719 21.507812 27.011719 22.070312 C 27.207031 22.652344 27.269531 23.148438 27.027344 23.722656 C 26.675781 24.34375 26.359375 24.714844 25.664062 24.933594 C 24.933594 25.035156 24.398438 24.941406 23.773438 24.523438 C 23.21875 23.921875 23.046875 23.453125 23.058594 22.625 C 23.144531 21.984375 23.539062 21.613281 24 21.203125 C 24.578125 20.917969 25.027344 20.886719 25.664062 20.980469 Z M 25.664062 20.980469 "/>
<path style=" stroke:none;fill-rule:nonzero;fill:rgb(0%,85.09804%,71.372551%);fill-opacity:1;" d="M 19.988281 20.980469 C 20.574219 21.28125 21.015625 21.628906 21.339844 22.207031 C 21.433594 22.835938 21.421875 23.378906 21.171875 23.960938 C 20.71875 24.515625 20.421875 24.875 19.6875 24.976562 C 19.035156 25.007812 18.613281 24.992188 18.097656 24.558594 C 17.59375 24.074219 17.382812 23.617188 17.355469 22.914062 C 17.367188 22.246094 17.554688 21.917969 18.003906 21.441406 C 18.625 20.9375 19.214844 20.871094 19.988281 20.980469 Z M 19.988281 20.980469 "/>
<path style=" stroke:none;fill-rule:nonzero;fill:rgb(10.196079%,12.156863%,12.54902%);fill-opacity:1;" d="M 40.65625 26.976562 C 41.0625 26.96875 41.46875 26.960938 41.886719 26.953125 C 42.015625 26.949219 42.140625 26.945312 42.273438 26.941406 C 43.082031 26.933594 43.652344 27.054688 44.285156 27.605469 C 44.523438 28.117188 44.527344 28.601562 44.4375 29.15625 C 44.117188 29.71875 43.828125 29.929688 43.222656 30.109375 C 42.777344 30.144531 42.339844 30.136719 41.894531 30.128906 C 41.488281 30.121094 41.078125 30.117188 40.65625 30.109375 C 40.65625 29.078125 40.65625 28.042969 40.65625 26.976562 Z M 40.65625 26.976562 "/>
<path style=" stroke:none;fill-rule:nonzero;fill:rgb(10.588235%,11.372549%,11.764706%);fill-opacity:1;" d="M 40.65625 22.34375 C 41.019531 22.332031 41.386719 22.320312 41.761719 22.308594 C 41.875 22.304688 41.988281 22.300781 42.105469 22.296875 C 42.636719 22.289062 42.894531 22.308594 43.355469 22.601562 C 43.703125 22.96875 43.753906 23.09375 43.804688 23.605469 C 43.753906 24.203125 43.601562 24.476562 43.222656 24.933594 C 42.714844 25.105469 42.238281 25.082031 41.710938 25.078125 C 41.363281 25.074219 41.015625 25.074219 40.65625 25.070312 C 40.65625 24.171875 40.65625 23.269531 40.65625 22.34375 Z M 40.65625 22.34375 "/>
<path style=" stroke:none;fill-rule:nonzero;fill:rgb(12.941177%,13.725491%,15.294118%);fill-opacity:1;" d="M 59.96875 28.339844 C 59.894531 29.234375 59.769531 29.757812 59.132812 30.417969 C 58.652344 30.71875 58.242188 30.824219 57.675781 30.792969 C 57.347656 30.636719 57.117188 30.503906 56.863281 30.246094 C 56.804688 29.863281 56.804688 29.863281 56.863281 29.429688 C 57.421875 28.980469 57.960938 28.765625 58.644531 28.578125 C 58.808594 28.53125 58.972656 28.488281 59.140625 28.4375 C 59.566406 28.339844 59.566406 28.339844 59.96875 28.339844 Z M 59.96875 28.339844 "/>
<path style=" stroke:none;fill-rule:nonzero;fill:rgb(16.078432%,15.294118%,16.470589%);fill-opacity:1;" d="M 79.015625 25.207031 C 79.644531 25.433594 80.003906 25.722656 80.367188 26.296875 C 80.367188 26.476562 80.367188 26.65625 80.367188 26.839844 C 79.117188 26.839844 77.871094 26.839844 76.582031 26.839844 C 76.730469 26.101562 76.855469 25.957031 77.394531 25.476562 C 77.941406 25.109375 78.371094 25.132812 79.015625 25.207031 Z M 79.015625 25.207031 "/>
<path style=" stroke:none;fill-rule:nonzero;fill:rgb(0%,90.980393%,60.392159%);fill-opacity:1;" d="M 14.859375 22.070312 C 15.238281 22.285156 15.238281 22.285156 15.53125 22.617188 C 15.660156 23.09375 15.71875 23.414062 15.566406 23.886719 C 15.398438 24.117188 15.398438 24.117188 14.992188 24.386719 C 14.519531 24.429688 14.167969 24.4375 13.726562 24.261719 C 13.371094 23.804688 13.3125 23.324219 13.371094 22.753906 C 13.78125 22.136719 14.128906 21.933594 14.859375 22.070312 Z M 14.859375 22.070312 "/>
<path style=" stroke:none;fill-rule:nonzero;fill:rgb(0%,74.509805%,80.000001%);fill-opacity:1;" d="M 25.527344 17.03125 C 25.917969 17.351562 25.929688 17.546875 25.984375 18.050781 C 25.910156 18.761719 25.910156 18.761719 25.527344 19.074219 C 25.160156 19.199219 24.832031 19.242188 24.449219 19.210938 C 24.050781 19.007812 24.050781 19.007812 23.773438 18.664062 C 23.628906 18.199219 23.628906 18.199219 23.636719 17.710938 C 24.152344 16.890625 24.609375 16.789062 25.527344 17.03125 Z M 25.527344 17.03125 "/>
<path style=" stroke:none;fill-rule:nonzero;fill:rgb(0%,90.980393%,60.784316%);fill-opacity:1;" d="M 15.128906 27.386719 C 15.464844 27.675781 15.464844 27.675781 15.667969 28.066406 C 15.667969 28.601562 15.609375 28.90625 15.3125 29.351562 C 14.867188 29.648438 14.574219 29.632812 14.046875 29.566406 C 13.726562 29.429688 13.726562 29.429688 13.507812 29.15625 C 13.382812 28.785156 13.339844 28.457031 13.371094 28.066406 C 13.867188 27.261719 14.226562 27.164062 15.128906 27.386719 Z M 15.128906 27.386719 "/>
<path style=" stroke:none;fill-rule:nonzero;fill:rgb(0%,66.666669%,90.196079%);fill-opacity:1;" d="M 29.984375 21.988281 C 30.542969 22.105469 30.738281 22.285156 31.066406 22.753906 C 31.167969 23.171875 31.136719 23.398438 31.066406 23.84375 C 30.699219 24.289062 30.476562 24.375 29.910156 24.464844 C 29.445312 24.386719 29.445312 24.386719 29.117188 24.105469 C 28.847656 23.601562 28.816406 23.320312 28.90625 22.753906 C 29.234375 22.292969 29.429688 22.101562 29.984375 21.988281 Z M 29.984375 21.988281 "/>
<path style=" stroke:none;fill-rule:nonzero;fill:rgb(0%,83.529413%,70.980394%);fill-opacity:1;" d="M 20.261719 17.03125 C 20.589844 17.253906 20.589844 17.253906 20.800781 17.574219 C 20.875 18.109375 20.886719 18.398438 20.589844 18.851562 C 20.148438 19.148438 19.84375 19.210938 19.316406 19.210938 C 18.925781 19.007812 18.925781 19.007812 18.640625 18.664062 C 18.496094 18.199219 18.496094 18.199219 18.503906 17.710938 C 19.011719 16.902344 19.347656 16.824219 20.261719 17.03125 Z M 20.261719 17.03125 "/>
<path style=" stroke:none;fill-rule:nonzero;fill:rgb(0%,91.764706%,61.176473%);fill-opacity:1;" d="M 14.519531 32.476562 C 15.117188 32.585938 15.316406 32.75 15.667969 33.246094 C 15.753906 33.652344 15.753906 33.652344 15.667969 34.0625 C 15.316406 34.558594 15.117188 34.71875 14.519531 34.828125 C 13.921875 34.71875 13.722656 34.558594 13.371094 34.0625 C 13.289062 33.652344 13.289062 33.652344 13.371094 33.246094 C 13.722656 32.75 13.921875 32.585938 14.519531 32.476562 Z M 14.519531 32.476562 "/>
<path style=" stroke:none;fill-rule:nonzero;fill:rgb(0%,75.294119%,80.784315%);fill-opacity:1;" d="M 25.394531 32.5625 C 25.730469 32.777344 25.730469 32.777344 25.933594 33.109375 C 26.011719 33.664062 25.984375 33.960938 25.730469 34.460938 C 25.320312 34.804688 25.089844 34.835938 24.570312 34.800781 C 24.160156 34.710938 24 34.546875 23.773438 34.199219 C 23.613281 33.695312 23.589844 33.476562 23.8125 32.996094 C 24.230469 32.453125 24.753906 32.472656 25.394531 32.5625 Z M 25.394531 32.5625 "/>
<path style=" stroke:none;fill-rule:nonzero;fill:rgb(0%,83.529413%,70.980394%);fill-opacity:1;" d="M 19.652344 32.476562 C 20.25 32.585938 20.449219 32.75 20.800781 33.246094 C 20.886719 33.652344 20.886719 33.652344 20.800781 34.0625 C 20.449219 34.558594 20.25 34.71875 19.652344 34.828125 C 19.054688 34.71875 18.855469 34.558594 18.503906 34.0625 C 18.417969 33.652344 18.417969 33.652344 18.503906 33.246094 C 18.855469 32.75 19.054688 32.585938 19.652344 32.476562 Z M 19.652344 32.476562 "/>
<path style=" stroke:none;fill-rule:nonzero;fill:rgb(0%,67.058825%,90.980393%);fill-opacity:1;" d="M 30.527344 27.386719 C 30.871094 27.617188 31.03125 27.777344 31.121094 28.191406 C 31.15625 28.714844 31.125 28.945312 30.785156 29.359375 C 30.289062 29.617188 29.996094 29.65625 29.445312 29.566406 C 29.007812 29.195312 28.917969 28.96875 28.835938 28.398438 C 28.914062 27.859375 29.023438 27.710938 29.445312 27.386719 C 29.847656 27.183594 30.097656 27.273438 30.527344 27.386719 Z M 30.527344 27.386719 "/>
<path style=" stroke:none;fill-rule:nonzero;fill:rgb(0%,67.058825%,90.980393%);fill-opacity:1;" d="M 30.136719 16.886719 C 30.492188 16.960938 30.644531 17.019531 30.929688 17.253906 C 31.121094 17.703125 31.117188 18.042969 31.066406 18.53125 C 30.929688 18.851562 30.929688 18.851562 30.660156 19.074219 C 30.292969 19.207031 29.96875 19.253906 29.578125 19.210938 C 29.175781 18.9375 29.175781 18.9375 28.90625 18.53125 C 28.796875 17.925781 28.835938 17.679688 29.175781 17.167969 C 29.589844 16.886719 29.671875 16.851562 30.136719 16.886719 Z M 30.136719 16.886719 "/>
<path style=" stroke:none;fill-rule:nonzero;fill:rgb(0%,92.156863%,61.176473%);fill-opacity:1;" d="M 14.453125 16.816406 C 14.964844 16.914062 15.183594 17.046875 15.53125 17.441406 C 15.703125 18 15.738281 18.261719 15.464844 18.785156 C 15.023438 19.164062 14.757812 19.222656 14.183594 19.210938 C 13.804688 18.96875 13.574219 18.796875 13.371094 18.394531 C 13.296875 17.839844 13.324219 17.640625 13.660156 17.183594 C 14.046875 16.894531 14.046875 16.894531 14.453125 16.816406 Z M 14.453125 16.816406 "/>
<path style=" stroke:none;fill-rule:nonzero;fill:rgb(0%,67.843139%,91.764706%);fill-opacity:1;" d="M 30.527344 32.5625 C 30.863281 32.765625 30.863281 32.765625 31.066406 33.109375 C 31.171875 33.65625 31.148438 34.058594 30.863281 34.539062 C 30.386719 34.828125 29.988281 34.851562 29.445312 34.742188 C 29.105469 34.539062 29.105469 34.539062 28.90625 34.199219 C 28.796875 33.648438 28.820312 33.25 29.105469 32.765625 C 29.585938 32.476562 29.980469 32.457031 30.527344 32.5625 Z M 30.527344 32.5625 "/>
<path style=" stroke:none;fill-rule:nonzero;fill:rgb(0%,74.509805%,80.392158%);fill-opacity:1;" d="M 24.582031 35.96875 C 24.9375 36.019531 24.9375 36.019531 25.257812 36.105469 C 25.34375 36.429688 25.34375 36.429688 25.394531 36.785156 C 25.121094 37.058594 25.121094 37.058594 24.777344 37.085938 C 24.449219 37.058594 24.449219 37.058594 24.3125 36.921875 C 24.285156 36.589844 24.285156 36.589844 24.3125 36.242188 C 24.402344 36.152344 24.492188 36.0625 24.582031 35.96875 Z M 24.582031 35.96875 "/>
<path style=" stroke:none;fill-rule:nonzero;fill:rgb(0%,81.960785%,69.803923%);fill-opacity:1;" d="M 19.449219 35.96875 C 19.804688 36.019531 19.804688 36.019531 20.125 36.105469 C 20.210938 36.429688 20.210938 36.429688 20.261719 36.785156 C 19.988281 37.058594 19.988281 37.058594 19.644531 37.085938 C 19.316406 37.058594 19.316406 37.058594 19.179688 36.921875 C 19.15625 36.589844 19.15625 36.589844 19.179688 36.242188 C 19.269531 36.152344 19.359375 36.0625 19.449219 35.96875 Z M 19.449219 35.96875 "/>
<path style=" stroke:none;fill-rule:nonzero;fill:rgb(0%,61.56863%,95.294118%);fill-opacity:1;" d="M 32.898438 27.90625 C 33.226562 27.929688 33.226562 27.929688 33.363281 28.066406 C 33.386719 28.398438 33.386719 28.398438 33.363281 28.75 C 33.273438 28.839844 33.183594 28.929688 33.089844 29.019531 C 32.738281 28.96875 32.738281 28.96875 32.417969 28.882812 C 32.332031 28.5625 32.332031 28.5625 32.28125 28.203125 C 32.550781 27.929688 32.550781 27.929688 32.898438 27.90625 Z M 32.898438 27.90625 "/>
<path style=" stroke:none;fill-rule:nonzero;fill:rgb(0%,95.294118%,54.901963%);fill-opacity:1;" d="M 11.691406 27.90625 C 12.019531 27.929688 12.019531 27.929688 12.15625 28.066406 C 12.179688 28.398438 12.179688 28.398438 12.15625 28.75 C 12.066406 28.839844 11.976562 28.929688 11.886719 29.019531 C 11.53125 28.96875 11.53125 28.96875 11.210938 28.882812 C 11.125 28.5625 11.125 28.5625 11.074219 28.203125 C 11.347656 27.929688 11.347656 27.929688 11.691406 27.90625 Z M 11.691406 27.90625 "/>
<path style=" stroke:none;fill-rule:nonzero;fill:rgb(0%,61.56863%,95.294118%);fill-opacity:1;" d="M 32.898438 22.726562 C 33.226562 22.753906 33.226562 22.753906 33.363281 22.890625 C 33.386719 23.222656 33.386719 23.222656 33.363281 23.570312 C 33.273438 23.660156 33.183594 23.75 33.089844 23.84375 C 32.738281 23.792969 32.738281 23.792969 32.417969 23.707031 C 32.332031 23.382812 32.332031 23.382812 32.28125 23.027344 C 32.550781 22.753906 32.550781 22.753906 32.898438 22.726562 Z M 32.898438 22.726562 "/>
<path style=" stroke:none;fill-rule:nonzero;fill:rgb(0%,95.294118%,54.901963%);fill-opacity:1;" d="M 11.691406 22.726562 C 12.019531 22.753906 12.019531 22.753906 12.15625 22.890625 C 12.179688 23.222656 12.179688 23.222656 12.15625 23.570312 C 12.066406 23.660156 11.976562 23.75 11.886719 23.84375 C 11.53125 23.792969 11.53125 23.792969 11.210938 23.707031 C 11.125 23.382812 11.125 23.382812 11.074219 23.027344 C 11.347656 22.753906 11.347656 22.753906 11.691406 22.726562 Z M 11.691406 22.726562 "/>
<path style=" stroke:none;fill-rule:nonzero;fill:rgb(0%,74.509805%,80.392158%);fill-opacity:1;" d="M 24.582031 14.578125 C 24.9375 14.628906 24.9375 14.628906 25.257812 14.714844 C 25.34375 15.039062 25.34375 15.039062 25.394531 15.394531 C 25.121094 15.667969 25.121094 15.667969 24.777344 15.695312 C 24.449219 15.667969 24.449219 15.667969 24.3125 15.53125 C 24.285156 15.199219 24.285156 15.199219 24.3125 14.851562 C 24.402344 14.761719 24.492188 14.671875 24.582031 14.578125 Z M 24.582031 14.578125 "/>
<path style=" stroke:none;fill-rule:nonzero;fill:rgb(0%,81.960785%,69.803923%);fill-opacity:1;" d="M 19.449219 14.578125 C 19.804688 14.628906 19.804688 14.628906 20.125 14.714844 C 20.210938 15.039062 20.210938 15.039062 20.261719 15.394531 C 19.988281 15.667969 19.988281 15.667969 19.644531 15.695312 C 19.316406 15.667969 19.316406 15.667969 19.179688 15.53125 C 19.15625 15.199219 19.15625 15.199219 19.179688 14.851562 C 19.269531 14.761719 19.359375 14.671875 19.449219 14.578125 Z M 19.449219 14.578125 "/>
</g>
</svg>
